<svg width="24" height="25" viewBox="0 0 24 25" fill="none" xmlns="http://www.w3.org/2000/svg">
<path fill-rule="evenodd" clip-rule="evenodd" d="M11.424 3.92835C12.109 3.62388 12.891 3.62388 13.576 3.92835C14.8675 4.50235 15.8363 5.62176 16.2189 6.9823L19.028 16.9699L14.2 16.9699H10.8L5.97205 16.9699L8.78107 6.9823C9.16372 5.62176 10.1325 4.50235 11.424 3.92835ZM9.1 18.6699H4.85001C4.5839 18.6699 4.33316 18.5453 4.17247 18.3332C4.01178 18.1211 3.95971 17.846 4.03175 17.5898L7.14456 6.52203C7.66419 4.67447 8.97971 3.15435 10.7335 2.37487C11.8581 1.87504 13.1419 1.87504 14.2665 2.37487C16.0203 3.15435 17.3358 4.67447 17.8554 6.52203L20.9682 17.5898C21.0403 17.846 20.9882 18.1211 20.8275 18.3332C20.6668 18.5453 20.4161 18.6699 20.15 18.6699H15.9C15.9 20.5477 14.3778 22.0699 12.5 22.0699C10.6222 22.0699 9.1 20.5477 9.1 18.6699ZM14.2 18.6699C14.2 19.6088 13.4389 20.3699 12.5 20.3699C11.5611 20.3699 10.8 19.6088 10.8 18.6699H12.5H14.2Z" fill="#F2F2F2"/>
</svg>
