<svg width="24" height="24" viewBox="0 0 24 24" fill="none" xmlns="http://www.w3.org/2000/svg">
<path fill-rule="evenodd" clip-rule="evenodd" d="M12 17.8019C16.6055 17.8019 21 14.7979 21 10.3672C21 5.93641 16.6055 2.93237 12 2.93237C7.3945 2.93237 3 5.93641 3 10.3672C3 11.9912 3.59041 13.4236 4.56522 14.5866V20.3233L5.73562 19.6556L5.85652 19.5869C5.93492 19.5423 6.04878 19.4778 6.19023 19.398C6.4732 19.2382 6.86632 19.0173 7.30686 18.7727C8.04459 18.363 8.90614 17.892 9.60541 17.5302C10.3817 17.7085 11.1876 17.8019 12 17.8019ZM19.4348 10.3672C19.4348 13.6088 16.1061 16.2367 12 16.2367C11.0327 16.2367 10.1085 16.0909 9.26087 15.8255L6.13043 17.8019V13.9514C5.16069 12.9599 4.56522 11.7167 4.56522 10.3672C4.56522 7.12548 7.89388 4.49759 12 4.49759C16.1061 4.49759 19.4348 7.12548 19.4348 10.3672Z" fill="#F2F2F2"/>
<path opacity="0.3" d="M8.47824 8.41064L15.5217 8.41064" stroke="#0E1826" stroke-width="2" stroke-linecap="round"/>
<path opacity="0.3" d="M10.0435 11.541H13.9565" stroke="#0E1826" stroke-width="2" stroke-linecap="round"/>
</svg>
