<svg width="24" height="24" viewBox="0 0 24 24" fill="none" xmlns="http://www.w3.org/2000/svg">
<path d="M12.4359 1.90002C7.10857 1.90002 2.70001 6.22647 2.70001 11.5641C2.70001 16.8966 7.10348 21.3 12.4359 21.3C17.7735 21.3 22.1 16.8915 22.1 11.5641C22.1 6.23154 17.7684 1.90002 12.4359 1.90002Z" fill="#8566FF" stroke="#A18AFF"/>
<path d="M16.6376 12.4864C16.3418 12.1064 15.8954 11.8454 15.2985 11.7035C16.0586 11.3183 16.3927 10.6645 16.301 9.742C16.2703 9.40748 16.1773 9.11757 16.0216 8.87182C15.8658 8.62603 15.6556 8.42843 15.3902 8.27894C15.125 8.12927 14.8366 8.01533 14.5255 7.93678C14.2145 7.85823 13.8573 7.80119 13.4543 7.76575V5.84998H12.2761V7.71253C12.072 7.71253 11.7609 7.71759 11.3427 7.72773V5.84998H10.1643V7.76575C9.99589 7.77084 9.74853 7.77342 9.42208 7.77342L7.79999 7.76575V9.01255H8.64925C9.03694 9.01255 9.26393 9.18491 9.33023 9.52949V11.7114C9.38131 11.7114 9.42208 11.714 9.45271 11.7191H9.33023V14.775C9.28947 15.0335 9.14156 15.1628 8.88648 15.1628H8.03727L7.80004 16.554H9.33037C9.4273 16.554 9.56749 16.5553 9.75121 16.5576C9.93481 16.5602 10.0725 16.5614 10.1643 16.5614V18.5H11.3429V16.5842C11.5571 16.5894 11.8682 16.5919 12.2763 16.5919V18.5H13.4546V16.5614C13.8729 16.5412 14.244 16.5034 14.5678 16.4474C14.8917 16.3915 15.2017 16.3042 15.4975 16.185C15.7932 16.066 16.0406 15.9177 16.2395 15.7403C16.4385 15.563 16.6029 15.3374 16.7332 15.0637C16.8631 14.7899 16.9461 14.4732 16.9817 14.1133C17.0482 13.409 16.9334 12.8666 16.6376 12.4864ZM11.3656 9.09595C11.4013 9.09595 11.502 9.09467 11.6678 9.09211C11.8337 9.0895 11.9714 9.087 12.081 9.08444C12.1907 9.08194 12.3387 9.08828 12.5249 9.10348C12.7111 9.11869 12.8679 9.139 12.9954 9.1643C13.1229 9.18959 13.2633 9.23143 13.4162 9.28971C13.5694 9.34795 13.6917 9.41893 13.7834 9.50254C13.8753 9.58615 13.9531 9.69264 14.0167 9.82188C14.0806 9.95111 14.1125 10.0993 14.1125 10.2666C14.1125 10.4085 14.0895 10.5378 14.0437 10.6544C13.9979 10.7709 13.9289 10.8685 13.8372 10.9471C13.7454 11.0256 13.6509 11.0941 13.5539 11.1524C13.4571 11.2106 13.3333 11.2575 13.1829 11.293C13.0325 11.3285 12.9011 11.3563 12.789 11.3766C12.6767 11.3969 12.5365 11.4108 12.3681 11.4184C12.1998 11.426 12.0722 11.4311 11.9855 11.4336C11.8988 11.4361 11.7802 11.4361 11.6297 11.4336C11.4791 11.4311 11.3912 11.4298 11.3657 11.4298V9.09592H11.3656V9.09595ZM14.5832 14.273C14.5346 14.3896 14.4722 14.4911 14.3957 14.5773C14.3191 14.6633 14.2183 14.7394 14.0934 14.8052C13.9685 14.8712 13.8473 14.9243 13.73 14.9648C13.6127 15.0055 13.4711 15.0408 13.3054 15.0713C13.1394 15.1018 12.9942 15.1232 12.869 15.1359C12.7441 15.1486 12.595 15.1587 12.4215 15.1664C12.2481 15.1739 12.1129 15.1777 12.016 15.1777C11.919 15.1777 11.7966 15.1763 11.6487 15.1739C11.5006 15.1715 11.4064 15.1702 11.3655 15.1702V12.6005C11.4063 12.6005 11.5274 12.5981 11.729 12.5929C11.9305 12.5878 12.095 12.5854 12.2225 12.5854C12.35 12.5854 12.5261 12.5929 12.7506 12.6082C12.9749 12.6233 13.1637 12.646 13.3168 12.6764C13.4698 12.7069 13.6367 12.7537 13.818 12.8171C13.999 12.8805 14.1457 12.9577 14.258 13.0489C14.3702 13.1403 14.4645 13.2567 14.541 13.3987C14.6177 13.5405 14.6559 13.7028 14.6559 13.8853C14.6559 14.0273 14.6317 14.1564 14.5832 14.273Z" fill="#F2F2F2"/>
</svg>
