<svg width="24" height="24" viewBox="0 0 24 24" fill="none" xmlns="http://www.w3.org/2000/svg">
<path d="M4.73744 19.0295C4.9309 18.7876 5.09848 18.5493 5.23113 18.3166L5.23161 18.3158C5.35189 18.1043 5.47821 17.8494 5.61022 17.559L5.61033 17.5588C5.75494 17.2405 5.87876 16.908 5.98272 16.562L6.22102 15.7687L5.48605 15.3869C4.28688 14.7638 3.37974 14.0138 2.72976 13.1514L2.72975 13.1514C2.0934 12.3071 1.79999 11.4415 1.79999 10.5333C1.79999 9.4815 2.18708 8.48309 3.0479 7.51325L3.04794 7.51321C3.91992 6.53067 5.13197 5.72249 6.73058 5.11426C8.32211 4.50873 10.0752 4.19995 12 4.19995C13.9249 4.19995 15.678 4.50873 17.2695 5.11426C18.868 5.72248 20.0801 6.53081 20.9521 7.51323L20.9521 7.51327C21.8129 8.48309 22.2 9.48164 22.2 10.5332V10.5332C22.2 11.585 21.8129 12.5835 20.952 13.5532L20.952 13.5533C20.0801 14.5357 18.868 15.3437 17.2693 15.9521L17.2693 15.9521C15.6779 16.5578 13.9248 16.8665 11.9999 16.8665C11.4515 16.8665 10.8798 16.8379 10.2849 16.7797L9.87664 16.7397L9.55795 16.998C8.05062 18.2194 6.29794 19.0738 4.28467 19.5565C4.41237 19.4271 4.56769 19.2423 4.73744 19.0295ZM4.73744 19.0295C4.73727 19.0297 4.7371 19.0299 4.73694 19.0302L3.95606 18.4055L4.7378 19.0291C4.73768 19.0292 4.73756 19.0294 4.73744 19.0295ZM3.29431 20.5834L3.29438 20.5833L3.29431 20.5834Z" stroke="#878B9E" stroke-width="2"/>
</svg>
