<svg width="24" height="24" viewBox="0 0 24 24" fill="none" xmlns="http://www.w3.org/2000/svg">
<path fill-rule="evenodd" clip-rule="evenodd" d="M12 15.3836C14.2757 15.3836 16.1206 13.517 16.1206 11.2143C16.1206 8.91168 14.2757 7.04503 12 7.04503C9.72427 7.04503 7.87943 8.91168 7.87943 11.2143C7.87943 13.517 9.72427 15.3836 12 15.3836ZM14.747 11.2143C14.747 12.7494 13.5172 13.9939 12 13.9939C10.4828 13.9939 9.25295 12.7494 9.25295 11.2143C9.25295 9.67923 10.4828 8.43479 12 8.43479C13.5172 8.43479 14.747 9.67923 14.747 11.2143Z" fill="#F2F2F2"/>
<path fill-rule="evenodd" clip-rule="evenodd" d="M15.999 3.73826L14.5487 4.12914L13.6859 2.8864C12.8654 1.70453 11.1346 1.70453 10.3141 2.8864L9.45134 4.12914L8.00097 3.73826C6.62164 3.36652 5.2957 4.49228 5.41799 5.93127L5.54657 7.44437L4.18721 8.08825C2.89443 8.70059 2.59385 10.4253 3.60169 11.4481L4.66143 12.5236L4.02914 13.901C3.42781 15.2109 4.29326 16.7276 5.71506 16.8556L7.21009 16.9902L7.60072 18.4566C7.97222 19.8511 9.59873 20.4501 10.7692 19.6234L12 18.7542L13.2308 19.6234C14.4013 20.4501 16.0278 19.8511 16.3993 18.4566L16.7899 16.9902L18.2849 16.8556C19.7067 16.7276 20.5722 15.2109 19.9709 13.901L19.3386 12.5236L20.3983 11.4481C21.4061 10.4253 21.1056 8.70059 19.8128 8.08825L18.4534 7.44437L18.582 5.93127C18.7043 4.49228 17.3784 3.36652 15.999 3.73826ZM11.438 3.68523C11.7115 3.29128 12.2885 3.29128 12.562 3.68523L13.7002 5.32486C13.8658 5.56329 14.1607 5.67191 14.439 5.59692L16.3525 5.0812C16.8123 4.95729 17.2543 5.33254 17.2135 5.81221L17.0439 7.80855C17.0192 8.09885 17.1762 8.37389 17.437 8.49742L19.2305 9.34693C19.6614 9.55104 19.7616 10.126 19.4256 10.4669L18.0274 11.8858C17.8241 12.0922 17.7696 12.4049 17.8909 12.6692L18.7252 14.4864C18.9256 14.9231 18.6371 15.4286 18.1632 15.4713L16.1907 15.6489C15.9039 15.6747 15.6634 15.8789 15.5885 16.1602L15.0731 18.0949C14.9493 18.5597 14.4071 18.7594 14.0169 18.4838L12.3931 17.337C12.1569 17.1702 11.8431 17.1702 11.6069 17.337L9.98308 18.4838C9.59291 18.7594 9.05074 18.5597 8.92691 18.0949L8.41153 16.1602C8.33658 15.8789 8.09614 15.6747 7.80931 15.6489L5.83681 15.4713C5.36288 15.4286 5.07439 14.9231 5.27484 14.4864L6.10907 12.6692C6.23038 12.4049 6.17587 12.0922 5.97256 11.8858L4.57437 10.4669C4.23842 10.126 4.33861 9.55104 4.76954 9.34693L6.56304 8.49742C6.82384 8.37389 6.98078 8.09885 6.95611 7.80855L6.78646 5.81221C6.7457 5.33254 7.18768 4.95729 7.64745 5.0812L9.56103 5.59692C9.83929 5.67191 10.1342 5.56329 10.2998 5.32486L11.438 3.68523Z" fill="#F2F2F2"/>
</svg>
